<svg width="19" height="22" viewBox="0 0 19 22" fill="none" xmlns="http://www.w3.org/2000/svg">
<path d="M9.60708 2.96127C10.5425 3.33718 11.5566 3.53825 12.5794 3.53825C13.3137 3.53825 14.0481 3.43335 14.7562 3.23228L15.6916 4.16768C14.9835 5.37409 14.6076 6.75534 14.6076 8.18905C14.6076 9.35174 14.8523 10.462 15.3332 11.511C15.4468 11.7558 15.5692 11.9919 15.7003 12.2192C16.05 12.8136 16.2423 13.4343 16.2598 14.0113C16.2598 14.055 16.2598 14.0987 16.2598 14.1337C16.2598 15.0429 15.9626 15.8996 15.3856 16.5989C14.8436 17.2633 14.1005 17.7442 13.2788 17.9452C13.0427 17.9802 12.8154 18.0152 12.6056 18.0589C11.4779 18.2774 10.3851 18.6446 9.35356 19.1342C8.32199 18.6446 7.22923 18.2862 6.11024 18.0589C5.89169 18.0152 5.66439 17.9802 5.42835 17.9452C4.6066 17.7442 3.85478 17.2633 3.32151 16.5989C2.75327 15.8908 2.4473 15.0429 2.4473 14.1337C2.4473 14.09 2.4473 14.0463 2.4473 14.0113C2.46478 13.4343 2.65711 12.8136 3.00679 12.2192C3.13793 11.9919 3.26906 11.7471 3.37396 11.511C3.85478 10.462 4.09956 9.35174 4.09956 8.18905C4.09956 6.75534 3.72365 5.37409 3.00679 4.16768L4.06459 3.10989C4.88634 3.38963 5.75181 3.53825 6.63476 3.53825C7.65759 3.53825 8.66293 3.33718 9.60708 2.96127ZM3.61874 0.705811L0.340454 3.9841C1.41573 5.05938 2.08013 6.54553 2.08013 8.18905C2.08013 9.072 1.88781 9.91124 1.53812 10.6718C1.4507 10.8554 1.36328 11.0302 1.25837 11.2051C0.768817 12.0443 0.454101 12.9797 0.419133 13.9501C0.419133 14.0113 0.419133 14.0725 0.419133 14.1424C0.419133 16.9661 2.3861 19.3352 5.03496 19.9384C5.26225 19.9734 5.48081 20.0084 5.69936 20.0521C7.00193 20.3056 8.22583 20.7777 9.33607 21.4246C10.4463 20.7777 11.6702 20.3143 12.9728 20.0521C13.1913 20.0084 13.4099 19.9734 13.6372 19.9384C16.2773 19.3352 18.253 16.9661 18.253 14.1424C18.253 14.0812 18.253 14.02 18.253 13.9501C18.2268 12.9797 17.9121 12.0356 17.4138 11.2051C17.3176 11.039 17.2214 10.8554 17.1428 10.6805C16.7931 9.92872 16.6008 9.08074 16.6008 8.19779C16.6008 6.55427 17.2652 5.06812 18.3404 3.99284L15.2457 0.898137C14.4502 1.29153 13.541 1.52757 12.5794 1.52757C11.4954 1.52757 10.4813 1.23908 9.60708 0.732037C8.73287 1.23908 7.71878 1.52757 6.63476 1.52757C5.53326 1.52757 4.50169 1.22159 3.61874 0.705811Z" fill="#052038"/>
</svg>
