<svg width="26" height="26" viewBox="0 0 26 26" fill="none" xmlns="http://www.w3.org/2000/svg">
<path d="M18.28 1.95996H22.04C23.1446 1.95996 24.04 2.85539 24.04 3.95996V7.71996" stroke="#072E51" stroke-width="2" stroke-linecap="round"/>
<path d="M18.28 24.04H22.04C23.1446 24.04 24.04 23.1446 24.04 22.04V18.28" stroke="#072E51" stroke-width="2" stroke-linecap="round"/>
<path d="M7.72 1.95996H3.96C2.85543 1.95996 1.96 2.85539 1.96 3.95996V7.71996" stroke="#072E51" stroke-width="2" stroke-linecap="round"/>
<path d="M7.72 24.04H3.96C2.85543 24.04 1.96 23.1446 1.96 22.04V18.28" stroke="#072E51" stroke-width="2" stroke-linecap="round"/>
<path d="M7.32748 13.6H8.36748C8.38748 13.6 8.40415 13.5933 8.41748 13.58C8.43748 13.56 8.44415 13.54 8.43748 13.52L7.85748 10.91C7.85748 10.9033 7.85415 10.9 7.84748 10.9C7.84082 10.9 7.83748 10.9033 7.83748 10.91L7.25748 13.52C7.25082 13.54 7.25415 13.56 7.26748 13.58C7.28748 13.5933 7.30748 13.6 7.32748 13.6ZM9.08748 9.74L11.0475 15.96C11.0875 16.0933 11.0642 16.2167 10.9775 16.33C10.8975 16.4433 10.7875 16.5 10.6475 16.5H9.66748C9.50082 16.5 9.35082 16.45 9.21748 16.35C9.09082 16.2433 9.01082 16.11 8.97748 15.95L8.80748 15.18C8.79415 15.1267 8.76082 15.1 8.70748 15.1H6.99748C6.93082 15.1 6.89415 15.1267 6.88748 15.18L6.71748 15.95C6.68415 16.11 6.60082 16.2433 6.46748 16.35C6.34082 16.45 6.19415 16.5 6.02748 16.5H5.08748C4.94748 16.5 4.83415 16.4433 4.74748 16.33C4.66748 16.2167 4.64748 16.0933 4.68748 15.96L6.64748 9.74C6.69415 9.58 6.78415 9.45 6.91748 9.35C7.05748 9.25 7.21415 9.2 7.38748 9.2H8.34748C8.51415 9.2 8.66415 9.25 8.79748 9.35C8.93748 9.45 9.03415 9.58 9.08748 9.74ZM14.21 12.85C14.3633 12.85 14.4967 12.9067 14.61 13.02C14.7233 13.1333 14.78 13.2667 14.78 13.42V13.78C14.78 13.9333 14.7233 14.0667 14.61 14.18C14.4967 14.2933 14.3633 14.35 14.21 14.35H11.75C11.5967 14.35 11.4633 14.2933 11.35 14.18C11.2367 14.0667 11.18 13.9333 11.18 13.78V13.42C11.18 13.2667 11.2367 13.1333 11.35 13.02C11.4633 12.9067 11.5967 12.85 11.75 12.85H14.21ZM17.2609 11.55C17.2609 12.3833 17.5943 12.8 18.2609 12.8C18.9276 12.8 19.2609 12.3833 19.2609 11.55C19.2609 11.23 19.1676 10.9767 18.9809 10.79C18.8009 10.5967 18.5609 10.5 18.2609 10.5C17.9476 10.5 17.7009 10.5933 17.5209 10.78C17.3476 10.9667 17.2609 11.2233 17.2609 11.55ZM18.2609 9.1C19.1743 9.1 19.8843 9.37333 20.3909 9.92C20.9043 10.4667 21.1609 11.26 21.1609 12.3C21.1609 15.1667 20.0443 16.6 17.8109 16.6C17.4709 16.6 17.0676 16.5667 16.6009 16.5C16.4409 16.4733 16.3076 16.3967 16.2009 16.27C16.1009 16.1433 16.0509 15.9967 16.0509 15.83V15.47C16.0509 15.33 16.1043 15.22 16.2109 15.14C16.3243 15.0533 16.4509 15.0267 16.5909 15.06C16.9776 15.1533 17.3509 15.2 17.7109 15.2C18.6909 15.2 19.2109 14.7233 19.2709 13.77C19.2709 13.7567 19.2676 13.75 19.2609 13.75H19.2409C18.8609 13.9833 18.4009 14.1 17.8609 14.1C16.1943 14.1 15.3609 13.2667 15.3609 11.6C15.3609 10.8333 15.6176 10.2267 16.1309 9.78C16.6443 9.32667 17.3543 9.1 18.2609 9.1Z" fill="#072E51"/>
</svg>
